<svg width="21" height="21" viewBox="0 0 21 21" fill="none" xmlns="http://www.w3.org/2000/svg">
<path d="M16.3333 3.41077H4.66667C4.22464 3.41077 3.80072 3.58636 3.48816 3.89892C3.17559 4.21148 3 4.63541 3 5.07743V16.7441C3 17.1861 3.17559 17.61 3.48816 17.9226C3.80072 18.2352 4.22464 18.4108 4.66667 18.4108H16.3333C16.7754 18.4108 17.1993 18.2352 17.5118 17.9226C17.8244 17.61 18 17.1861 18 16.7441V5.07743C18 4.63541 17.8244 4.21148 17.5118 3.89892C17.1993 3.58636 16.7754 3.41077 16.3333 3.41077ZM16.3333 5.07743V16.7441H4.66667V5.07743H16.3333ZM8.83333 15.0774L5.5 11.7441L6.675 10.5608L8.83333 12.7191L14.325 7.22743L15.5 8.41077" fill="#6B6B6A"/>
</svg>
