<svg width="30" height="31" viewBox="0 0 30 31" fill="none" xmlns="http://www.w3.org/2000/svg">
<path fill-rule="evenodd" clip-rule="evenodd" d="M15 28.9778C18.481 28.9778 21.8194 27.595 24.2808 25.1336C26.7422 22.6722 28.125 19.3338 28.125 15.8528C28.125 12.3719 26.7422 9.03348 24.2808 6.57207C21.8194 4.11065 18.481 2.72784 15 2.72784C11.519 2.72784 8.18064 4.11065 5.71922 6.57207C3.25781 9.03348 1.875 12.3719 1.875 15.8528C1.875 19.3338 3.25781 22.6722 5.71922 25.1336C8.18064 27.595 11.519 28.9778 15 28.9778ZM13.0875 21.2341H11.7563L7.5 16.9778L8.83125 15.6466L12.4313 19.2466L20.3062 11.3528L21.6375 12.6841L13.0875 21.2341Z" fill="#2DCA8C"/>
</svg>
