<svg width="30" height="31" viewBox="0 0 30 31" fill="none" xmlns="http://www.w3.org/2000/svg">
<path d="M15 21.3972C15.3542 21.3972 15.6513 21.2772 15.8913 21.0372C16.1313 20.7972 16.2508 20.5005 16.25 20.1472C16.25 19.793 16.13 19.4959 15.89 19.2559C15.65 19.0159 15.3533 18.8963 15 18.8972C14.6458 18.8972 14.3487 19.0172 14.1087 19.2572C13.8687 19.4972 13.7492 19.7938 13.75 20.1472C13.75 20.5013 13.87 20.7984 14.11 21.0384C14.35 21.2784 14.6467 21.398 15 21.3972ZM13.75 16.3972H16.25V8.89716H13.75V16.3972ZM15 27.6472C13.2708 27.6472 11.6458 27.3188 10.125 26.6622C8.60417 26.0055 7.28125 25.1151 6.15625 23.9909C5.03125 22.8659 4.14083 21.543 3.485 20.0222C2.82917 18.5013 2.50083 16.8763 2.5 15.1472C2.5 13.418 2.82833 11.793 3.485 10.2722C4.14167 8.75132 5.03208 7.42841 6.15625 6.30341C7.28125 5.17841 8.60417 4.28799 10.125 3.63216C11.6458 2.97632 13.2708 2.64799 15 2.64716C16.7292 2.64716 18.3542 2.97549 19.875 3.63216C21.3958 4.28882 22.7188 5.17924 23.8438 6.30341C24.9688 7.42841 25.8596 8.75132 26.5162 10.2722C27.1729 11.793 27.5008 13.418 27.5 15.1472C27.5 16.8763 27.1717 18.5013 26.515 20.0222C25.8583 21.543 24.9679 22.8659 23.8438 23.9909C22.7188 25.1159 21.3958 26.0067 19.875 26.6634C18.3542 27.3201 16.7292 27.648 15 27.6472Z" fill="#F24E1E"/>
</svg>
