<svg width="30" height="31" viewBox="0 0 30 31" fill="none" xmlns="http://www.w3.org/2000/svg">
<path opacity="0.3" d="M24.999 10.1416L14.999 16.3916L4.99902 10.1416V22.6416H24.999V10.1416ZM24.999 7.64157H4.99902L14.999 13.8791L24.999 7.64157Z" fill="#CBCBCB"/>
<path d="M4.99902 25.1416H24.999C26.374 25.1416 27.499 24.0166 27.499 22.6416V7.64157C27.499 6.26657 26.374 5.14157 24.999 5.14157H4.99902C3.62402 5.14157 2.49902 6.26657 2.49902 7.64157V22.6416C2.49902 24.0166 3.62402 25.1416 4.99902 25.1416ZM24.999 7.64157L14.999 13.8791L4.99902 7.64157H24.999ZM4.99902 10.1416L14.999 16.3916L24.999 10.1416V22.6416H4.99902V10.1416Z" fill="#CBCBCB"/>
</svg>
