<svg width="40" height="40" viewBox="0 0 40 40" fill="none" xmlns="http://www.w3.org/2000/svg">
<path d="M33.375 31.2852C33.3828 31.2734 33.3945 31.2617 33.4023 31.25C35.9609 28.207 37.5 24.2852 37.5 20C37.5 15.7148 35.9609 11.793 33.4062 8.75C33.3984 8.73828 33.3867 8.73047 33.3789 8.71875C33.3359 8.66797 33.2969 8.62109 33.2539 8.57422C33.2383 8.55469 33.2227 8.53906 33.207 8.51953L33.0469 8.33594L33.043 8.33203C32.9844 8.26562 32.9219 8.19922 32.8633 8.13281L32.8594 8.12891C32.7344 7.99609 32.6094 7.86328 32.4805 7.73438L32.4766 7.73047L32.2891 7.54297L32.2773 7.53125C32.2188 7.47266 32.1602 7.41797 32.1016 7.36328C32.082 7.34375 32.0625 7.32422 32.0391 7.30469C32 7.26562 31.9609 7.23047 31.9219 7.19531C31.9102 7.18359 31.8945 7.17188 31.8828 7.15625C28.7656 4.26562 24.5898 2.5 20 2.5C15.4102 2.5 11.2344 4.26562 8.11328 7.15625C8.10156 7.16797 8.08594 7.17969 8.07422 7.19531C8.03516 7.23047 7.99609 7.26953 7.95703 7.30859C7.9375 7.32812 7.91797 7.34766 7.89453 7.36719C7.83594 7.42188 7.77734 7.48047 7.71875 7.53516L7.70703 7.54688L7.51953 7.73438L7.51562 7.73828C7.38672 7.86719 7.26172 8 7.13672 8.13281L7.13281 8.13672C7.07031 8.20312 7.01172 8.26953 6.95312 8.33594L6.94922 8.33984C6.89453 8.39844 6.83984 8.46094 6.78906 8.52344C6.77344 8.54297 6.75781 8.55859 6.74219 8.57812C6.69922 8.625 6.66016 8.67578 6.61719 8.72266C6.60937 8.73438 6.59766 8.74219 6.58984 8.75391C4.03906 11.793 2.5 15.7148 2.5 20C2.5 24.2852 4.03906 28.207 6.59375 31.25C6.60156 31.2617 6.61328 31.2734 6.62109 31.2852L6.74219 31.4297C6.75781 31.4492 6.77344 31.4648 6.78906 31.4844L6.94922 31.668C6.94922 31.6719 6.95312 31.6719 6.95312 31.6758C7.01172 31.7422 7.07031 31.8086 7.13281 31.8711L7.13672 31.875C7.26172 32.0078 7.38672 32.1406 7.51172 32.2695L7.51562 32.2734C7.57812 32.3359 7.63672 32.3984 7.69922 32.457L7.71094 32.4688C7.83984 32.5977 7.97266 32.7227 8.10547 32.8438C11.2344 35.7344 15.4102 37.5 20 37.5C24.5898 37.5 28.7656 35.7344 31.8867 32.8438C32.0198 32.7218 32.15 32.5967 32.2773 32.4688L32.2891 32.457C32.3516 32.3945 32.4141 32.3359 32.4727 32.2734L32.4766 32.2695C32.6055 32.1406 32.7305 32.0078 32.8516 31.875L32.8555 31.8711C32.9141 31.8047 32.9766 31.7422 33.0352 31.6758C33.0352 31.6719 33.0391 31.6719 33.0391 31.668C33.0938 31.6094 33.1484 31.5469 33.1992 31.4844C33.2148 31.4648 33.2305 31.4492 33.2461 31.4297C33.2903 31.3826 33.3332 31.3344 33.375 31.2852ZM33.5352 25.7148C32.9961 26.9883 32.2852 28.168 31.418 29.2383C30.4413 28.3942 29.3735 27.6618 28.2344 27.0547C28.6875 25.2227 28.9688 23.2109 29.043 21.0938H34.6484C34.5312 22.6914 34.1562 24.2422 33.5352 25.7148ZM34.6484 18.9062H29.043C28.9688 16.7891 28.6875 14.7773 28.2344 12.9453C29.3789 12.3359 30.4453 11.6016 31.418 10.7617C33.303 13.0819 34.4306 15.9248 34.6484 18.9062ZM25.7148 6.46484C27.2656 7.12109 28.6758 8.02734 29.918 9.16797C29.1964 9.78239 28.4196 10.329 27.5977 10.8008C26.9844 9.04297 26.1992 7.51562 25.2852 6.29297C25.4297 6.34766 25.5742 6.40625 25.7148 6.46484ZM22.1758 33.832C21.8164 34.1133 21.457 34.3281 21.0938 34.4727V27.2266C22.6437 27.3347 24.1679 27.6799 25.6133 28.25C25.2891 29.2109 24.9141 30.0977 24.4805 30.8984C23.8008 32.1641 23.0039 33.1758 22.1758 33.832ZM24.4805 9.10156C24.9102 9.90625 25.2891 10.793 25.6133 11.75C24.1679 12.3201 22.6437 12.6653 21.0938 12.7734V5.53125C21.4531 5.67578 21.8164 5.88672 22.1758 6.17188C23.0039 6.82422 23.8008 7.83594 24.4805 9.10156ZM21.0938 25.0352V21.0938H26.8555C26.793 22.8203 26.5781 24.4961 26.2188 26.0859L26.207 26.1328C24.5677 25.5112 22.8438 25.1411 21.0938 25.0352ZM21.0938 18.9062V14.9648C22.8828 14.8555 24.6016 14.4766 26.207 13.8672L26.2188 13.9141C26.5781 15.5039 26.793 17.1758 26.8555 18.9062H21.0938ZM18.9062 21.0938V25.0352C17.1172 25.1445 15.3984 25.5234 13.793 26.1328L13.7812 26.0859C13.4219 24.4961 13.207 22.8242 13.1445 21.0938H18.9062ZM13.1445 18.9062C13.207 17.1797 13.4219 15.5039 13.7812 13.9141L13.793 13.8672C15.3984 14.4766 17.1133 14.8555 18.9062 14.9648V18.9062H13.1445ZM18.9062 27.2266V34.4688C18.5469 34.3242 18.1836 34.1133 17.8242 33.8281C16.9961 33.1758 16.1953 32.1602 15.5156 30.8945C15.0859 30.0898 14.707 29.2031 14.3828 28.2461C15.8359 27.6758 17.3477 27.3359 18.9062 27.2266ZM18.9062 12.7734C17.3563 12.6653 15.8321 12.3201 14.3867 11.75C14.7109 10.7891 15.0859 9.90234 15.5195 9.10156C16.1992 7.83594 16.9961 6.82031 17.8281 6.16797C18.1875 5.88672 18.5469 5.67188 18.9102 5.52734V12.7734H18.9062ZM14.2852 6.46484C14.4297 6.40625 14.5703 6.34766 14.7148 6.29297C13.8008 7.51562 13.0156 9.04297 12.4023 10.8008C11.582 10.332 10.8047 9.78516 10.082 9.16797C11.3242 8.02734 12.7344 7.12109 14.2852 6.46484ZM6.46484 14.2852C7.00391 13.0117 7.71484 11.832 8.58203 10.7617C9.55469 11.6016 10.6211 12.3359 11.7656 12.9453C11.3125 14.7773 11.0312 16.7891 10.957 18.9062H5.35156C5.46875 17.3086 5.84375 15.7578 6.46484 14.2852ZM5.35156 21.0938H10.957C11.0312 23.2109 11.3125 25.2227 11.7656 27.0547C10.6265 27.6618 9.55868 28.3942 8.58203 29.2383C6.69699 26.9181 5.56941 24.0752 5.35156 21.0938ZM14.2852 33.5352C12.7344 32.8789 11.3242 31.9727 10.082 30.832C10.8047 30.2148 11.582 29.6719 12.4023 29.1992C13.0156 30.957 13.8008 32.4844 14.7148 33.707C14.5703 33.6523 14.4258 33.5938 14.2852 33.5352ZM25.7148 33.5352C25.5703 33.5938 25.4297 33.6523 25.2852 33.707C26.1992 32.4844 26.9844 30.957 27.5977 29.1992C28.418 29.668 29.1953 30.2148 29.918 30.832C28.6827 31.9679 27.2608 32.8823 25.7148 33.5352Z" fill="current"/>
</svg>
