<svg width="16" height="17" viewBox="0 0 16 17" fill="none" xmlns="http://www.w3.org/2000/svg">
<path d="M15 6.37646C15 10.7515 8.51312 14.2927 8.23687 14.439C8.16406 14.4781 8.08268 14.4986 8 14.4986C7.91732 14.4986 7.83594 14.4781 7.76312 14.439C7.48688 14.2927 1 10.7515 1 6.37646C1.00116 5.34911 1.40979 4.36416 2.13624 3.63771C2.86269 2.91125 3.84764 2.50262 4.875 2.50146C6.16563 2.50146 7.29562 3.05646 8 3.99459C8.70438 3.05646 9.83438 2.50146 11.125 2.50146C12.1524 2.50262 13.1373 2.91125 13.8638 3.63771C14.5902 4.36416 14.9988 5.34911 15 6.37646Z" fill="#F24E1E"/>
</svg>
