<svg width="40" height="40" viewBox="0 0 40 40" fill="none" xmlns="http://www.w3.org/2000/svg">
<path d="M33.3333 6.66666C35.1833 6.66666 36.6667 8.14999 36.6667 9.99999V30C36.6667 31.85 35.1833 33.3333 33.3333 33.3333H6.66668C4.81668 33.3333 3.33334 31.85 3.33334 30V9.99999C3.33334 8.14999 4.81668 6.66666 6.66668 6.66666H33.3333ZM14.1667 25V15H12.0833V20.8333L7.91668 15H5.83334V25H7.91668V19.1667L12.1667 25H14.1667ZM22.5 17.1V15H15.8333V25H22.5V22.9167H18.3333V21.0667H22.5V18.9667H18.3333V17.1H22.5ZM34.1667 23.3333V15H32.0833V22.5H30.2167V16.6667H28.1333V22.5H26.25V15H24.1667V23.3333C24.1667 23.7754 24.3423 24.1993 24.6548 24.5118C24.9674 24.8244 25.3913 25 25.8333 25H32.5C32.942 25 33.366 24.8244 33.6785 24.5118C33.9911 24.1993 34.1667 23.7754 34.1667 23.3333Z" fill="current"/>
</svg>
