<svg width="30" height="31" viewBox="0 0 30 31" fill="none" xmlns="http://www.w3.org/2000/svg">
<path d="M14.999 21.8216C15.6621 21.8216 16.2979 21.5582 16.7668 21.0893C17.2356 20.6205 17.499 19.9846 17.499 19.3216C17.499 18.6585 17.2356 18.0226 16.7668 17.5538C16.2979 17.085 15.6621 16.8216 14.999 16.8216C14.336 16.8216 13.7001 17.085 13.2313 17.5538C12.7624 18.0226 12.499 18.6585 12.499 19.3216C12.499 19.9846 12.7624 20.6205 13.2313 21.0893C13.7001 21.5582 14.336 21.8216 14.999 21.8216ZM22.499 10.5716C23.1621 10.5716 23.7979 10.835 24.2668 11.3038C24.7356 11.7726 24.999 12.4085 24.999 13.0716V25.5716C24.999 26.2346 24.7356 26.8705 24.2668 27.3393C23.7979 27.8082 23.1621 28.0716 22.499 28.0716H7.49902C6.83598 28.0716 6.2001 27.8082 5.73126 27.3393C5.26242 26.8705 4.99902 26.2346 4.99902 25.5716V13.0716C4.99902 12.4085 5.26242 11.7726 5.73126 11.3038C6.2001 10.835 6.83598 10.5716 7.49902 10.5716H8.74902V8.07156C8.74902 6.41396 9.4075 4.82425 10.5796 3.65215C11.7517 2.48004 13.3414 1.82156 14.999 1.82156C15.8198 1.82156 16.6325 1.98322 17.3908 2.29732C18.1491 2.61141 18.8381 3.07178 19.4184 3.65215C19.9988 4.23251 20.4592 4.92151 20.7733 5.67979C21.0874 6.43808 21.249 7.2508 21.249 8.07156V10.5716H22.499ZM14.999 4.32156C14.0045 4.32156 13.0506 4.71665 12.3474 5.41991C11.6441 6.12317 11.249 7.077 11.249 8.07156V10.5716H18.749V8.07156C18.749 7.077 18.3539 6.12317 17.6507 5.41991C16.9474 4.71665 15.9936 4.32156 14.999 4.32156Z" fill="#CBCBCB"/>
</svg>
