<svg width="22" height="22" viewBox="0 0 22 22" fill="none" xmlns="http://www.w3.org/2000/svg">
<path fill-rule="evenodd" clip-rule="evenodd" d="M14.4975 0.70987L1.90004 13.3074C1.71172 13.4952 1.58824 13.7383 1.54754 14.0011L0.666294 19.7436C0.636557 19.9376 0.652897 20.1358 0.713993 20.3223C0.775089 20.5087 0.879224 20.6782 1.01797 20.8169C1.15672 20.9557 1.32618 21.0598 1.51265 21.1209C1.69911 21.182 1.89734 21.1984 2.09129 21.1686L7.83504 20.2874C8.09776 20.247 8.34077 20.124 8.52879 19.9361L21.1263 7.33862C21.3606 7.10421 21.4923 6.78633 21.4923 6.45487C21.4923 6.12342 21.3606 5.80553 21.1263 5.57112L16.2638 0.70862C16.0294 0.474664 15.7118 0.343262 15.3807 0.343262C15.0495 0.343262 14.7319 0.474664 14.4975 0.70862V0.70987ZM3.39629 18.4399L3.95629 14.7849L15.3813 3.35987L18.475 6.45487L7.05004 17.8799L3.39629 18.4399Z" fill="#6B6B6A"/>
<path d="M12.3027 5.74373L13.6277 4.41748L17.6802 8.46748L16.354 9.79373L12.3027 5.74373Z" fill="#6B6B6A"/>
</svg>
