<svg width="40" height="40" viewBox="0 0 40 40" fill="none" xmlns="http://www.w3.org/2000/svg">
<path d="M6.6665 6.66667C6.6665 5.78261 7.01769 4.93477 7.64281 4.30964C8.26794 3.68452 9.11578 3.33333 9.99984 3.33333H23.3332C23.7752 3.33343 24.199 3.50908 24.5115 3.82167L32.8448 12.155C33.1574 12.4675 33.3331 12.8913 33.3332 13.3333V33.3333C33.3332 34.2174 32.982 35.0652 32.3569 35.6904C31.7317 36.3155 30.8839 36.6667 29.9998 36.6667H9.99984C9.11578 36.6667 8.26794 36.3155 7.64281 35.6904C7.01769 35.0652 6.6665 34.2174 6.6665 33.3333V6.66667ZM29.3098 13.3333L23.3332 7.35667V13.3333H29.3098ZM19.9998 6.66667H9.99984V33.3333H29.9998V16.6667H21.6665C21.2245 16.6667 20.8006 16.4911 20.488 16.1785C20.1754 15.866 19.9998 15.442 19.9998 15V6.66667ZM13.3332 21.6667C13.3332 21.2246 13.5088 20.8007 13.8213 20.4882C14.1339 20.1756 14.5578 20 14.9998 20H24.9998C25.4419 20 25.8658 20.1756 26.1783 20.4882C26.4909 20.8007 26.6665 21.2246 26.6665 21.6667C26.6665 22.1087 26.4909 22.5326 26.1783 22.8452C25.8658 23.1577 25.4419 23.3333 24.9998 23.3333H14.9998C14.5578 23.3333 14.1339 23.1577 13.8213 22.8452C13.5088 22.5326 13.3332 22.1087 13.3332 21.6667ZM13.3332 28.3333C13.3332 27.8913 13.5088 27.4674 13.8213 27.1548C14.1339 26.8423 14.5578 26.6667 14.9998 26.6667H24.9998C25.4419 26.6667 25.8658 26.8423 26.1783 27.1548C26.4909 27.4674 26.6665 27.8913 26.6665 28.3333C26.6665 28.7754 26.4909 29.1993 26.1783 29.5118C25.8658 29.8244 25.4419 30 24.9998 30H14.9998C14.5578 30 14.1339 29.8244 13.8213 29.5118C13.5088 29.1993 13.3332 28.7754 13.3332 28.3333Z" fill="#6B6B6A"/>
</svg>
