<svg width="40" height="40" viewBox="0 0 40 40" fill="none" xmlns="http://www.w3.org/2000/svg">
<path d="M36.5333 11.0333C36.3642 10.6261 36.0406 10.3025 35.6333 10.1333C35.433 10.0479 35.2178 10.0026 35 10H26.6667C26.2246 10 25.8007 10.1756 25.4882 10.4882C25.1756 10.8007 25 11.2246 25 11.6667C25 12.1087 25.1756 12.5326 25.4882 12.8452C25.8007 13.1577 26.2246 13.3333 26.6667 13.3333H30.9833L21.6667 22.65L16.1833 17.15C16.0284 16.9938 15.8441 16.8698 15.641 16.7852C15.4379 16.7006 15.22 16.657 15 16.657C14.78 16.657 14.5621 16.7006 14.359 16.7852C14.1559 16.8698 13.9716 16.9938 13.8167 17.15L3.81667 27.15C3.66045 27.3049 3.53646 27.4893 3.45185 27.6924C3.36723 27.8955 3.32367 28.1133 3.32367 28.3333C3.32367 28.5534 3.36723 28.7712 3.45185 28.9743C3.53646 29.1774 3.66045 29.3617 3.81667 29.5167C3.9716 29.6729 4.15594 29.7969 4.35904 29.8815C4.56214 29.9661 4.77998 30.0097 5 30.0097C5.22002 30.0097 5.43786 29.9661 5.64096 29.8815C5.84406 29.7969 6.02839 29.6729 6.18333 29.5167L15 20.6833L20.4833 26.1833C20.6383 26.3395 20.8226 26.4635 21.0257 26.5482C21.2288 26.6328 21.4466 26.6763 21.6667 26.6763C21.8867 26.6763 22.1045 26.6328 22.3076 26.5482C22.5107 26.4635 22.6951 26.3395 22.85 26.1833L33.3333 15.6833V20C33.3333 20.442 33.5089 20.8659 33.8215 21.1785C34.134 21.4911 34.558 21.6667 35 21.6667C35.442 21.6667 35.8659 21.4911 36.1785 21.1785C36.4911 20.8659 36.6667 20.442 36.6667 20V11.6667C36.664 11.4489 36.6187 11.2337 36.5333 11.0333Z" fill="current"/>
</svg>
