<svg width="current" height="current" viewBox="0 0 31 31" fill="none" xmlns="http://www.w3.org/2000/svg">
<path d="M30.4446 27.9501L21.4965 19.0006C22.9385 17.019 23.7142 14.6307 23.7119 12.1799C23.7119 5.76526 18.4929 0.546265 12.0782 0.546265C5.66357 0.546265 0.44458 5.76526 0.44458 12.1799C0.44458 18.5946 5.66357 23.8136 12.0782 23.8136C14.529 23.8159 16.9173 23.0402 18.8989 21.5982L27.8484 30.5463L30.4446 27.9501ZM12.0782 20.1393C10.5038 20.1394 8.96471 19.6727 7.65557 18.7981C6.34643 17.9235 5.32605 16.6803 4.72348 15.2257C4.12091 13.7712 3.96321 12.1706 4.27033 10.6264C4.57745 9.08226 5.33559 7.66384 6.44887 6.55056C7.56216 5.43728 8.98058 4.67914 10.5248 4.37202C12.0689 4.0649 13.6695 4.2226 15.124 4.82517C16.5786 5.42774 17.8218 6.44811 18.6964 7.75726C19.571 9.0664 20.0378 10.6055 20.0376 12.1799C20.0351 14.2901 19.1958 16.3132 17.7036 17.8053C16.2115 19.2974 14.1884 20.1368 12.0782 20.1393Z" fill="#F7CE62"/>
</svg>
