<svg width="current" height="31" viewBox="0 0 31 31" fill="none" xmlns="http://www.w3.org/2000/svg">
<path d="M30.4446 27.9501L21.4965 19.0005C22.9385 17.0189 23.7142 14.6307 23.7119 12.1799C23.7119 5.76521 18.4929 0.546219 12.0782 0.546219C5.66357 0.546219 0.44458 5.76521 0.44458 12.1799C0.44458 18.5945 5.66357 23.8135 12.0782 23.8135C14.529 23.8159 16.9173 23.0402 18.8989 21.5981L27.8484 30.5462L30.4446 27.9501ZM12.0782 20.1392C10.5038 20.1394 8.96471 19.6726 7.65557 18.798C6.34643 17.9234 5.32605 16.6802 4.72348 15.2257C4.12091 13.7711 3.96321 12.1706 4.27033 10.6264C4.57745 9.08222 5.33559 7.6638 6.44887 6.55051C7.56216 5.43723 8.98058 4.67909 10.5248 4.37197C12.0689 4.06485 13.6695 4.22255 15.124 4.82512C16.5786 5.42769 17.8218 6.44807 18.6964 7.75721C19.571 9.06635 20.0378 10.6055 20.0376 12.1799C20.0351 14.2901 19.1958 16.3131 17.7036 17.8053C16.2115 19.2974 14.1884 20.1368 12.0782 20.1392Z" fill="#F7CE62"/>
</svg>
