<svg width="21" height="21" viewBox="0 0 21 21" fill="none" xmlns="http://www.w3.org/2000/svg">
<path d="M16.75 3.26923H4.25C3.91848 3.26923 3.60054 3.40092 3.36612 3.63534C3.1317 3.86976 3 4.18771 3 4.51923V17.0192C3 17.3507 3.1317 17.6687 3.36612 17.9031C3.60054 18.1375 3.91848 18.2692 4.25 18.2692H16.75C17.0815 18.2692 17.3995 18.1375 17.6339 17.9031C17.8683 17.6687 18 17.3507 18 17.0192V4.51923C18 4.18771 17.8683 3.86976 17.6339 3.63534C17.3995 3.40092 17.0815 3.26923 16.75 3.26923ZM4.25 17.0192V4.51923H16.75V17.0192H4.25Z" fill="#6B6B6A"/>
</svg>
