<svg width="16" height="17" viewBox="0 0 16 17" fill="none" xmlns="http://www.w3.org/2000/svg">
<path d="M11.125 2.77051C9.8125 2.77051 8.67125 3.36238 8 4.35426C7.32875 3.36238 6.1875 2.77051 4.875 2.77051C3.88079 2.77167 2.92764 3.16713 2.22463 3.87014C1.52162 4.57315 1.12616 5.5263 1.125 6.52051C1.125 8.34551 2.2625 10.2449 4.50625 12.1649C5.53441 13.041 6.64501 13.8154 7.8225 14.4774C7.87707 14.5067 7.93805 14.5221 8 14.5221C8.06195 14.5221 8.12293 14.5067 8.1775 14.4774C9.35499 13.8154 10.4656 13.041 11.4937 12.1649C13.7375 10.2449 14.875 8.34551 14.875 6.52051C14.8738 5.5263 14.4784 4.57315 13.7754 3.87014C13.0724 3.16713 12.1192 2.77167 11.125 2.77051ZM8 13.7149C6.97437 13.123 1.875 10.003 1.875 6.52051C1.87583 5.72511 2.19216 4.96253 2.75459 4.4001C3.31702 3.83767 4.0796 3.52134 4.875 3.52051C6.1425 3.52051 7.20687 4.19738 7.65312 5.28738C7.68138 5.35616 7.72944 5.41499 7.7912 5.45639C7.85297 5.49779 7.92564 5.5199 8 5.5199C8.07436 5.5199 8.14703 5.49779 8.2088 5.45639C8.27056 5.41499 8.31862 5.35616 8.34688 5.28738C8.79313 4.19738 9.8575 3.52051 11.125 3.52051C11.9204 3.52134 12.683 3.83767 13.2454 4.4001C13.8078 4.96253 14.1242 5.72511 14.125 6.52051C14.125 10.003 9.02563 13.123 8 13.7149Z" fill="#F24E1E"/>
</svg>
