<svg width="30" height="31" viewBox="0 0 30 31" fill="none" xmlns="http://www.w3.org/2000/svg">
<path d="M27.06 25.2738C25.2752 22.1882 22.5248 19.9757 19.3151 18.9269C20.9028 17.9817 22.1363 16.5415 22.8263 14.8274C23.5162 13.1133 23.6244 11.2202 23.1343 9.43863C22.6441 7.65709 21.5828 6.0857 20.1131 4.96578C18.6434 3.84585 16.8468 3.23932 14.9991 3.23932C13.1513 3.23932 11.3547 3.84585 9.88503 4.96578C8.41538 6.0857 7.35398 7.65709 6.86384 9.43863C6.3737 11.2202 6.48191 13.1133 7.17186 14.8274C7.86182 16.5415 9.09536 17.9817 10.6831 18.9269C7.47328 19.9745 4.72289 22.187 2.93813 25.2738C2.87268 25.3805 2.82927 25.4992 2.81045 25.623C2.79164 25.7468 2.7978 25.8731 2.82859 25.9944C2.85937 26.1157 2.91415 26.2297 2.98968 26.3295C3.06522 26.4294 3.15999 26.5131 3.26839 26.5757C3.3768 26.6383 3.49665 26.6786 3.62087 26.6941C3.74509 26.7097 3.87117 26.7002 3.99167 26.6662C4.11216 26.6322 4.22464 26.5745 4.32245 26.4964C4.42026 26.4182 4.50143 26.3213 4.56118 26.2113C6.76899 22.3956 10.6713 20.1175 14.9991 20.1175C19.3268 20.1175 23.2291 22.3956 25.437 26.2113C25.4967 26.3213 25.5779 26.4182 25.6757 26.4964C25.7735 26.5745 25.886 26.6322 26.0065 26.6662C26.127 26.7002 26.253 26.7097 26.3773 26.6941C26.5015 26.6786 26.6213 26.6383 26.7297 26.5757C26.8381 26.5131 26.9329 26.4294 27.0084 26.3295C27.084 26.2297 27.1388 26.1157 27.1695 25.9944C27.2003 25.8731 27.2065 25.7468 27.1877 25.623C27.1689 25.4992 27.1255 25.3805 27.06 25.2738ZM8.43657 11.68C8.43657 10.3821 8.82145 9.11328 9.54255 8.03408C10.2636 6.95488 11.2886 6.11375 12.4877 5.61705C13.6868 5.12035 15.0063 4.99039 16.2793 5.2436C17.5523 5.49682 18.7217 6.12184 19.6395 7.03962C20.5572 7.9574 21.1823 9.12673 21.4355 10.3997C21.6887 11.6727 21.5587 12.9922 21.062 14.1914C20.5653 15.3905 19.7242 16.4154 18.645 17.1365C17.5658 17.8576 16.297 18.2425 14.9991 18.2425C13.2592 18.2406 11.591 17.5486 10.3607 16.3183C9.13043 15.088 8.43843 13.4199 8.43657 11.68Z" fill="#CBCBCB"/>
</svg>
