<svg width="40" height="40" viewBox="0 0 40 40" fill="none" xmlns="http://www.w3.org/2000/svg">
<path d="M32.5 10H37.5V40H5V10H10V7.5H12.5V10H30V7.5H32.5V10ZM35 12.5H32.5V15H35V12.5ZM30 12.5H12.5V15H30V12.5ZM10 12.5H7.5V15H10V12.5ZM7.5 37.5H35V17.5H7.5V37.5ZM5 7.5V5H2.5V32.5H0V2.5H5V0H7.5V2.5H25V0H27.5V2.5H32.5V5H27.5V7.5H25V5H7.5V7.5H5ZM12.5 27.5V25H15V27.5H12.5ZM17.5 27.5V25H20V27.5H17.5ZM22.5 27.5V25H25V27.5H22.5ZM27.5 27.5V25H30V27.5H27.5ZM12.5 32.5V30H15V32.5H12.5ZM17.5 32.5V30H20V32.5H17.5ZM22.5 32.5V30H25V32.5H22.5ZM17.5 22.5V20H20V22.5H17.5ZM22.5 22.5V20H25V22.5H22.5ZM27.5 22.5V20H30V22.5H27.5Z" fill="current"/>
</svg>
